<svg xmlns="http://www.w3.org/2000/svg" xmlns:xlink="http://www.w3.org/1999/xlink" width="500" zoomAndPan="magnify"
    viewBox="0 0 375 374.999991" height="500" preserveAspectRatio="xMidYMid meet" version="1.0">
    <style>
        path {
            fill: black;
        }

        @media (prefers-color-scheme: dark) {
            path {
                fill: white;
            }
        }
    </style>
    <defs>
        <g />
    </defs>
    <g fill="#ffffff" fill-opacity="1">
        <g transform="translate(103.879107, 223.299485)">
            <g>
                <path
                    d="M 89.199219 -1.703125 L 46.019531 -112.777344 C 45.59375 -113.910156 43.605469 -113.910156 43.179688 -112.777344 L 0.140625 -1.703125 C -0.285156 -0.851562 0.285156 0 1.5625 0 L 21.019531 0 C 21.589844 0 22.300781 -0.285156 22.441406 -0.851562 L 44.597656 -64.199219 L 67.039062 -0.851562 C 67.183594 -0.285156 67.894531 0 68.320312 0 L 87.917969 0 C 88.914062 0 89.625 -0.851562 89.199219 -1.703125 Z M 89.199219 -1.703125 " />
            </g>
        </g>
    </g>
    <g fill="#ffffff" fill-opacity="1">
        <g transform="translate(188.268509, 273.282616)">
            <g>
                <path
                    d="M 59.230469 -92.464844 L 44.316406 -50.847656 L 22.15625 -112.777344 C 22.015625 -113.34375 21.449219 -113.628906 20.738281 -113.628906 L 1.421875 -113.628906 C 0.285156 -113.628906 -0.285156 -112.777344 0.140625 -111.921875 L 42.894531 -0.710938 C 43.460938 0.285156 45.167969 0.285156 45.59375 -0.710938 L 81.101562 -92.464844 Z M 59.230469 -92.464844 " />
            </g>
        </g>
    </g>
    <g fill="#ffffff" fill-opacity="1">
        <g transform="translate(107.879272, 242.4704)">
            <g>
                <path
                    d="M 2.15625 0 L -0.046875 0 L 3.09375 -8.46875 L 5.265625 -8.46875 L 8.3125 0 L 6.125 0 L 5.6875 -1.421875 L 2.609375 -1.421875 Z M 4.125 -6.390625 C 4.050781 -6.128906 3.972656 -5.859375 3.890625 -5.578125 C 3.804688 -5.296875 3.664062 -4.835938 3.46875 -4.203125 L 3.125 -3.078125 L 5.15625 -3.078125 L 4.8125 -4.203125 C 4.6875 -4.546875 4.566406 -4.90625 4.453125 -5.28125 C 4.335938 -5.664062 4.226562 -6.035156 4.125 -6.390625 Z M 4.125 -6.390625 " />
            </g>
        </g>
    </g>
    <g fill="#ffffff" fill-opacity="1">
        <g transform="translate(123.53922, 242.4704)">
            <g>
                <path
                    d="M 6.046875 -1.953125 L 6.046875 0 L 0.640625 0 L 0.640625 -8.46875 L 2.734375 -8.46875 L 2.734375 -1.953125 Z M 6.046875 -1.953125 " />
            </g>
        </g>
    </g>
    <g fill="#ffffff" fill-opacity="1">
        <g transform="translate(137.120178, 242.4704)">
            <g>
                <path
                    d="M 2.234375 0 L 0 -8.46875 L 2.265625 -8.46875 L 3.15625 -4.28125 C 3.195312 -4.132812 3.234375 -3.9375 3.265625 -3.6875 C 3.304688 -3.445312 3.378906 -2.984375 3.484375 -2.296875 C 3.515625 -2.460938 3.566406 -2.789062 3.640625 -3.28125 C 3.710938 -3.769531 3.769531 -4.097656 3.8125 -4.265625 L 4.671875 -8.46875 L 6.859375 -8.46875 L 7.75 -4.28125 C 7.78125 -4.132812 7.816406 -3.9375 7.859375 -3.6875 C 7.898438 -3.445312 7.972656 -2.984375 8.078125 -2.296875 C 8.097656 -2.460938 8.144531 -2.789062 8.21875 -3.28125 C 8.300781 -3.769531 8.359375 -4.097656 8.390625 -4.265625 L 9.265625 -8.46875 L 11.46875 -8.46875 L 9.25 0 L 6.828125 0 L 6.296875 -2.5625 C 6.203125 -3 6.109375 -3.453125 6.015625 -3.921875 C 5.929688 -4.398438 5.835938 -4.929688 5.734375 -5.515625 C 5.585938 -4.710938 5.472656 -4.109375 5.390625 -3.703125 C 5.316406 -3.296875 5.242188 -2.914062 5.171875 -2.5625 L 4.625 0 Z M 2.234375 0 " />
            </g>
        </g>
    </g>
    <g fill="#ffffff" fill-opacity="1">
        <g transform="translate(155.93911, 242.4704)">
            <g>
                <path
                    d="M 2.15625 0 L -0.046875 0 L 3.09375 -8.46875 L 5.265625 -8.46875 L 8.3125 0 L 6.125 0 L 5.6875 -1.421875 L 2.609375 -1.421875 Z M 4.125 -6.390625 C 4.050781 -6.128906 3.972656 -5.859375 3.890625 -5.578125 C 3.804688 -5.296875 3.664062 -4.835938 3.46875 -4.203125 L 3.125 -3.078125 L 5.15625 -3.078125 L 4.8125 -4.203125 C 4.6875 -4.546875 4.566406 -4.90625 4.453125 -5.28125 C 4.335938 -5.664062 4.226562 -6.035156 4.125 -6.390625 Z M 4.125 -6.390625 " />
            </g>
        </g>
    </g>
    <g fill="#ffffff" fill-opacity="1">
        <g transform="translate(171.599055, 242.4704)">
            <g>
                <path
                    d="M 5.90625 -8.46875 L 8.0625 -8.46875 L 5.109375 -3.078125 L 5.109375 0 L 3.015625 0 L 3.015625 -3.078125 L -0.03125 -8.46875 L 2.359375 -8.46875 L 4.0625 -4.921875 Z M 5.90625 -8.46875 " />
            </g>
        </g>
    </g>
    <g fill="#ffffff" fill-opacity="1">
        <g transform="translate(187.015997, 242.4704)">
            <g>
                <path
                    d="M 3.859375 -3.15625 L 2.140625 -3.5625 C 1.460938 -3.726562 1 -3.976562 0.75 -4.3125 C 0.5 -4.644531 0.375 -5.117188 0.375 -5.734375 C 0.375 -6.710938 0.632812 -7.429688 1.15625 -7.890625 C 1.675781 -8.359375 2.476562 -8.59375 3.5625 -8.59375 C 4.007812 -8.59375 4.410156 -8.570312 4.765625 -8.53125 C 5.117188 -8.5 5.441406 -8.441406 5.734375 -8.359375 L 5.734375 -6.484375 C 5.054688 -6.597656 4.585938 -6.660156 4.328125 -6.671875 C 4.066406 -6.691406 3.800781 -6.703125 3.53125 -6.703125 C 3.144531 -6.703125 2.863281 -6.640625 2.6875 -6.515625 C 2.519531 -6.390625 2.4375 -6.179688 2.4375 -5.890625 C 2.4375 -5.742188 2.460938 -5.628906 2.515625 -5.546875 C 2.578125 -5.472656 2.679688 -5.421875 2.828125 -5.390625 L 4.453125 -5.015625 C 4.921875 -4.898438 5.257812 -4.789062 5.46875 -4.6875 C 5.675781 -4.582031 5.84375 -4.453125 5.96875 -4.296875 C 6.113281 -4.117188 6.21875 -3.894531 6.28125 -3.625 C 6.351562 -3.351562 6.390625 -3.023438 6.390625 -2.640625 C 6.390625 -1.660156 6.125 -0.953125 5.59375 -0.515625 C 5.070312 -0.078125 4.265625 0.140625 3.171875 0.140625 C 2.609375 0.140625 2.078125 0.101562 1.578125 0.03125 C 1.078125 -0.03125 0.6875 -0.113281 0.40625 -0.21875 L 0.40625 -2.203125 C 0.757812 -2.085938 1.1875 -1.992188 1.6875 -1.921875 C 2.1875 -1.859375 2.679688 -1.828125 3.171875 -1.828125 C 3.566406 -1.828125 3.835938 -1.875 3.984375 -1.96875 C 4.140625 -2.070312 4.21875 -2.269531 4.21875 -2.5625 C 4.21875 -2.75 4.191406 -2.882812 4.140625 -2.96875 C 4.097656 -3.0625 4.003906 -3.125 3.859375 -3.15625 Z M 3.859375 -3.15625 " />
            </g>
        </g>
    </g>
    <g fill="#ffffff" fill-opacity="1">
        <g transform="translate(235.036292, 171.301762)">
            <g>
                <path
                    d="M 2.5625 0 L -0.046875 0 L 3.65625 -10.03125 L 6.234375 -10.03125 L 9.859375 0 L 7.265625 0 L 6.734375 -1.6875 L 3.09375 -1.6875 Z M 4.890625 -7.5625 C 4.804688 -7.269531 4.710938 -6.953125 4.609375 -6.609375 C 4.515625 -6.273438 4.347656 -5.726562 4.109375 -4.96875 L 3.703125 -3.640625 L 6.109375 -3.640625 L 5.703125 -4.96875 C 5.554688 -5.375 5.414062 -5.800781 5.28125 -6.25 C 5.144531 -6.707031 5.015625 -7.144531 4.890625 -7.5625 Z M 4.890625 -7.5625 " />
            </g>
        </g>
    </g>
    <g fill="#ffffff" fill-opacity="1">
        <g transform="translate(245.689929, 171.301762)">
            <g>
                <path
                    d="M 7.171875 -2.3125 L 7.171875 0 L 0.765625 0 L 0.765625 -10.03125 L 3.25 -10.03125 L 3.25 -2.3125 Z M 7.171875 -2.3125 " />
            </g>
        </g>
    </g>
    <g fill="#ffffff" fill-opacity="1">
        <g transform="translate(253.880157, 171.301762)">
            <g>
                <path d="M 3.25 -10.03125 L 3.25 0 L 0.765625 0 L 0.765625 -10.03125 Z M 3.25 -10.03125 " />
            </g>
        </g>
    </g>
    <g fill="#ffffff" fill-opacity="1">
        <g transform="translate(258.71119, 171.301762)">
            <g>
                <path
                    d="M 3.4375 0 L -0.03125 -10.03125 L 2.734375 -10.03125 L 4.21875 -5.078125 C 4.320312 -4.742188 4.441406 -4.300781 4.578125 -3.75 C 4.710938 -3.195312 4.84375 -2.648438 4.96875 -2.109375 C 5.207031 -3.078125 5.375 -3.757812 5.46875 -4.15625 C 5.570312 -4.550781 5.65625 -4.851562 5.71875 -5.0625 L 7.1875 -10.03125 L 9.875 -10.03125 L 6.421875 0 Z M 3.4375 0 " />
            </g>
        </g>
    </g>
    <g fill="#ffffff" fill-opacity="1">
        <g transform="translate(269.364826, 171.301762)">
            <g>
                <path
                    d="M 7.6875 -2.3125 L 7.6875 0 L 0.765625 0 L 0.765625 -10.03125 L 7.53125 -10.03125 L 7.53125 -7.796875 L 3.25 -7.796875 L 3.25 -6.125 L 6.9375 -6.125 L 6.9375 -4.046875 L 3.25 -4.046875 L 3.25 -2.3125 Z M 7.6875 -2.3125 " />
            </g>
        </g>
    </g>
</svg>